<svg width="19" height="19" viewBox="0 0 19 19" fill="none" xmlns="http://www.w3.org/2000/svg">
<path d="M12.0572 9.5009L18.4481 3.10826C18.6207 2.94149 18.7585 2.742 18.8532 2.52143C18.948 2.30086 18.9978 2.06363 18.9999 1.82358C19.002 1.58354 18.9563 1.34548 18.8654 1.12329C18.7745 0.901113 18.6402 0.699261 18.4705 0.529514C18.3007 0.359768 18.0989 0.225528 17.8767 0.134626C17.6545 0.0437247 17.4165 -0.0020177 17.1764 6.82594e-05C16.9364 0.00215422 16.6991 0.0520268 16.4786 0.146776C16.258 0.241525 16.0585 0.379252 15.8917 0.551923L9.4991 6.94276L3.10826 0.551923C2.94149 0.379252 2.742 0.241525 2.52143 0.146776C2.30086 0.0520268 2.06363 0.00215422 1.82358 6.82594e-05C1.58354 -0.0020177 1.34548 0.0437247 1.12329 0.134626C0.901113 0.225528 0.699261 0.359768 0.529514 0.529514C0.359768 0.699261 0.225528 0.901113 0.134626 1.12329C0.0437247 1.34548 -0.0020177 1.58354 6.82594e-05 1.82358C0.00215422 2.06363 0.0520268 2.30086 0.146776 2.52143C0.241525 2.742 0.379252 2.94149 0.551923 3.10826L6.94276 9.4991L0.551923 15.8917C0.379252 16.0585 0.241525 16.258 0.146776 16.4786C0.0520268 16.6991 0.00215422 16.9364 6.82594e-05 17.1764C-0.0020177 17.4165 0.0437247 17.6545 0.134626 17.8767C0.225528 18.0989 0.359768 18.3007 0.529514 18.4705C0.699261 18.6402 0.901113 18.7745 1.12329 18.8654C1.34548 18.9563 1.58354 19.002 1.82358 18.9999C2.06363 18.9978 2.30086 18.948 2.52143 18.8532C2.742 18.7585 2.94149 18.6207 3.10826 18.4481L9.4991 12.0572L15.8917 18.4481C16.0585 18.6207 16.258 18.7585 16.4786 18.8532C16.6991 18.948 16.9364 18.9978 17.1764 18.9999C17.4165 19.002 17.6545 18.9563 17.8767 18.8654C18.0989 18.7745 18.3007 18.6402 18.4705 18.4705C18.6402 18.3007 18.7745 18.0989 18.8654 17.8767C18.9563 17.6545 19.002 17.4165 18.9999 17.1764C18.9978 16.9364 18.948 16.6991 18.8532 16.4786C18.7585 16.258 18.6207 16.0585 18.4481 15.8917L12.0572 9.5009Z" fill="white"/>
</svg>
